<svg xmlns="http://www.w3.org/2000/svg"><symbol id="micropachycephalosaurus" viewBox="0 0 256 256"><path d="M132.2 151.2c-.3 0-.4.2-.4.6h-.1a.5.5 0 0 0-.5.5c0 .4.2.6.5.6s.4-.2.4-.6h.1c.4 0 .5-.1.5-.5s-.1-.6-.5-.6zm1.5-.8a3.6 3.6 0 0 0-.9.8h.3l1.2-.3a3 3 0 0 0 .8-.8h-.3a2.3 2.3 0 0 0-1.1.3zm3.1-2.5c-.3 0-.4.1-.4.5h-.2c-.3 0-.4.2-.4.6h-.1c-.3 0-.5.2-.5.6a.5.5 0 0 0 .5.5c.3 0 .4-.2.4-.5h.1c.3 0 .5-.2.5-.6h.1c.3 0 .5-.2.5-.6s-.2-.5-.5-.5zm23.4-6l-1.3 1.4a1.7 1.7 0 0 0 .8 1.1l1.1.2a2.7 2.7 0 0 0 1.5-.5 5.8 5.8 0 0 0 1-1.2 10.9 10.9 0 0 0 .8-1.5c.2-.5.4-1.2.5-1.2h-3.5c-.2 0-.5 1.1-.9 1.7z"/><path d="M127.7.3C57 .3-.3 57.5-.3 128s57.3 127.7 128 127.7 128-57.2 128-127.7S198.4.3 127.7.3zm95.9 75.8l-1.5.4h-3.8a39.3 39.3 0 0 0-5.2 1.3 15.8 15.8 0 0 0-3.7 1.6 10.3 10.3 0 0 0-2.5 2.1 21.4 21.4 0 0 0-1.7 3 17.6 17.6 0 0 0-1.5 3.9l-1.7 5.2-1.2 3.4a30.5 30.5 0 0 1-1.3 3.2c-.4 1.1-.9 2.1-1.4 3.2l-1.8 3.2a24.2 24.2 0 0 1-2.7 4.1 34.7 34.7 0 0 1-3 3.7l-3.1 3.6c-1.1 1.2-2.1 2.5-3.1 3.8a11.6 11.6 0 0 0-1.4 2.7 20 20 0 0 1-1 2.6 9.8 9.8 0 0 1-1.3 2.2 5.7 5.7 0 0 1-2.5 1.6l-1.4.6-2 .6-2.1.7-1.3.4a2.8 2.8 0 0 1 .1 2 2 2 0 0 1-.9.9l-1.2.6a1.8 1.8 0 0 0-.9 1l-2.2 6.7a3.1 3.1 0 0 1-1.1 1.6 7.5 7.5 0 0 1-1.8.8 12.3 12.3 0 0 1-2 .2 11.5 11.5 0 0 1-1.9-.1h-2a.8.8 0 0 1-.4-.8c0-.2.1-.3.1-.4l.3-.3.2-.3c.1-.1.1-.2.1-.4v-.2a28.1 28.1 0 0 0-3.5 1.7l-3.4 2.1-3.3 2.2-3.4 1.9-.9.5a6.7 6.7 0 0 0-1.2.6l-1 .8a1.8 1.8 0 0 0-.4 1v.3c.1.2.1.2.1.3l1.8 1.6a15.4 15.4 0 0 0 1.9 1.7l2.1 1.6a12 12 0 0 0 2.1 1.3l1.8.7 2 .5 1.9.7a7 7 0 0 1 1.7.9 8.6 8.6 0 0 1 1.3 1.4l1.1 1.5 1.2 1.5a8.6 8.6 0 0 0 1.4 1.3l1.7.6 2.1.6a7.7 7.7 0 0 1 1.8 1 2.3 2.3 0 0 1 .8 1.7.4.4 0 0 1-.1.3v.3l-5.7 1.1-1.1.4-1.2.2h-.5l-1.2-.6-1.7-1-1.7-1.1-1.1-.7-.2-.2-.3-.5-.3-.6-.3-.4-2.3-4.6-1.1-.4-1.8-.8-2.2-.9-2.1-1-1.8-.8a4.4 4.4 0 0 1-1.2-.6 16.4 16.4 0 0 1-2.8-1.6 17.1 17.1 0 0 1-2.6-2.1 10.5 10.5 0 0 1-2-2.7 8.7 8.7 0 0 1-1.1-3.2l-.5.3-.6.3-.9.7-1.7 1.1-2.2 1.5-2.1 1.3-1.8 1.1-.9.5-6.1 3.6a22.2 22.2 0 0 0-4.5 3.4 18.2 18.2 0 0 0-3.7 4.5c-.9 1.7-.7 3.9-2.4 6.6v1.6a10.5 10.5 0 0 0 1.2 4.5 7.5 7.5 0 0 0 2.1 2.5 8.9 8.9 0 0 0 2.7 1.5l2.6.9a8.5 8.5 0 0 1 1.9 1 4.5 4.5 0 0 1 .9 2h-13.5a1 1 0 0 0-.1-.4l-.4-.2h-.5l-.6-.3a3.4 3.4 0 0 1-1.3-1.6 11.9 11.9 0 0 1-.5-2.2c0-.7.2-1.5.2-2.3a21.1 21.1 0 0 0 .3-2.1v-1.4a8.2 8.2 0 0 1 .3-1.8c.2-.8.3-1.7.6-2.7a24.9 24.9 0 0 1 .8-3.2c.3-1.1.5-2.1.8-3.1s.4-1.9.6-2.7l.5-1.8.6-2 1-1.9a13.5 13.5 0 0 0 4.6-2.6 19.9 19.9 0 0 0 3.2-3.3l3-3.4a14.5 14.5 0 0 1 3.4-3.1 3.5 3.5 0 0 1 1.5-.7l2-.8 2.4-1 2.1-1.1a7.6 7.6 0 0 0 1.6-1.4 2.2 2.2 0 0 0 .6-1.5v-1.4a1.7 1.7 0 0 0-.6-1.2l-.8-.3-1.2-.5-1.2-.6-.8-.3a9.4 9.4 0 0 1-2-1.2c-.9-.6-1.7-1.3-2.7-1.9a25.6 25.6 0 0 0-2.5-1.6 3 3 0 0 0-1.8-.5h-7.9c-6 0-12-.1-17.8.1s-11.8.2-17.8.2c-4.4 0-8.8-.2-13-.4a102.3 102.3 0 0 1-12.4-1.4 96.9 96.9 0 0 1-12.1-2.9 72.3 72.3 0 0 1-11.9-5.1l-1.4-.7-1.7-1-1.3-1.3a3.3 3.3 0 0 1-.5-1.6 5.9 5.9 0 0 1 2.1.4l2.5.9 2.2 1 1.5.6a42.4 42.4 0 0 0 4.7 1.7l5.1 1.4a30.6 30.6 0 0 0 5.1 1 28.5 28.5 0 0 0 4.9.4h26.7l2.6-.4 3.4-.5 3.7-.6 3.4-.6 2.7-.6 6.9-1.4c2.5-.4 5-1 7.5-1.6s4.9-1.3 7.3-2.1a43.6 43.6 0 0 0 6.6-2.8l3.9-1.8 3.8-1.6 4-1.3a25.9 25.9 0 0 1 4.2-.9l1-.2h3.6l1.1-.2 1.9-.3 3.3-.8 4.1-.9 4.1-.9c1.3-.3 2.4-.9 3.4-1.1s1.5-.8 1.9-.8h6.6a66 66 0 0 1 7.9.8c2.6.2 5.3.5 7.9.5a10.2 10.2 0 0 0 5.1-1.3 18.7 18.7 0 0 0 4.6-3.5 33.3 33.3 0 0 0 3.9-5 64.8 64.8 0 0 0 3.3-5.7c.9-1.9 1.8-3.8 2.5-5.6s1.3-3.4 1.8-4.8.8-2.4 1.2-3.5a22.6 22.6 0 0 1 1-3.1 11.1 11.1 0 0 1 1.2-2.7 8.4 8.4 0 0 1 1.8-2 8.2 8.2 0 0 1 2.6-1.6 12.7 12.7 0 0 1 3.8-.8h3.1c.8 1.7 1.8 1 3 1.4l3.6 1.5a21.6 21.6 0 0 1 3 1.8 2.9 2.9 0 0 1 1.2 2.2 2 2 0 0 1-.4 1.4 2.7 2.7 0 0 1-1.2.4z"/></symbol><symbol id="brachiosaurus" viewBox="0 0 256 256"><path d="M58.5 167.2a31.9 31.9 0 0 0-7.7.9h-.1c0 .3.3.6.8 1l2 1a16.9 16.9 0 0 0 2.7 1l2.8.9 2.4.6 1.5.2h2.2l2.5-.4a11.7 11.7 0 0 0 2.4-.9 5 5 0 0 0 1.7-1.5 30.3 30.3 0 0 0-6.4-2.2 31.4 31.4 0 0 0-6.8-.6z"/><path d="M127.8.3a127.7 127.7 0 1 0 0 255.4c70.6 0 127.9-57.2 127.9-127.7S198.4.3 127.8.3zm83.4 70.5v.3a8.8 8.8 0 0 1-.1 1.4l-.3 2.1c-.2.7-.2 1.4-.4 2.1s-.2 1.1-.2 1.4a5.1 5.1 0 0 0-.9 1.8 11.8 11.8 0 0 0-.7 2l-.6 2a14.6 14.6 0 0 1-.7 1.9 22.7 22.7 0 0 1-1.7 3.1A22.5 22.5 0 0 0 204 92l-20 27.8a1.1 1.1 0 0 1-.3.5l-.2.3-.4.3-.4.5-1.6 2.3c-.7.9-1.4 1.8-2.1 2.9l-2.2 3.2c-.7 1.1-1.4 2.2-2 3.3s-1 2.1-1.4 3a8 8 0 0 0-.5 2.3c0 .3-.3.5-.2.7s.2.5.2.7a.3.3 0 0 0-.3.3.5.5 0 0 0 .3.5v10.2a2.2 2.2 0 0 1-.3 1c-.2.3-.2.7-.4 1.1s-.5.9-.6 1.3-.4.8-.4 1.1v1.7a.8.8 0 0 1 0 .5 2 2 0 0 0-.4.8l-.8.8a1.4 1.4 0 0 1-.5.4v.4c0 .1.7.2.8.4s.9.3.9.4v2.9a21.4 21.4 0 0 1-.6 3.5c-.2 1.2-.6 2.4-.8 3.5s-.5 2.4-.7 3.6a19.8 19.8 0 0 0-.3 3.5q0 3.2.3 6.3a42.3 42.3 0 0 0 1.1 6.2 31 31 0 0 0 2.1 5.8 25 25 0 0 0 3.5 5.2 5.7 5.7 0 0 1-1.3.8l-1.7.7-1.7.5h-1.9l-1.1-.3-1.2-.2-1-.3h-.7l-.8-.3-.6-.5a.9.9 0 0 1-.3-.7c.1-1.3.1-2.7.1-4.1l-.3-4.2c-.1-1.5-.3-2.9-.5-4.3s-.4-2.8-.5-4.1a1.4 1.4 0 0 1-.2-.7 1.6 1.6 0 0 0-.3-.6c.1-1.1.1-2.3.1-3.6a28.1 28.1 0 0 0-.1-4.1 27.6 27.6 0 0 0-.6-4 11.6 11.6 0 0 0-1.4-3.4 3.8 3.8 0 0 0-1.5 1.8c-.3.8-.5 1.8-.8 2.7s-.2 2-.4 2.9a15.3 15.3 0 0 0-.9 2.4v7.6c0 2.8-.2 5.6-.1 8.3s.2 5.4.5 8.2l.5.4.8.6.8.7a.9.9 0 0 1 .3.6c0 .2-.2.5-.8.8l-1.9.9-2 .8-1.3.4h-.2l-4.7-2.6a.5.5 0 0 1-.3-.5v-.6a14.5 14.5 0 0 1 .1-3 28.1 28.1 0 0 0 .1-3 23.4 23.4 0 0 0-.3-3.8l-.6-3.7-.6-3.8a25.6 25.6 0 0 1-.3-3.9c0-1.3.1-2.4.1-3.4a27 27 0 0 1 .4-2.8c.2-.9.3-1.8.5-2.8s.4-2 .7-3.2a2 2 0 0 0-.1-.7 5.6 5.6 0 0 0-.1-.7 6.5 6.5 0 0 0-1.9.2l-1.8.5-2 .6-1.9.5-1.3.2-1.1.2c-.4 0-.7-.2-1-.1l-1.1-.2h-1.8a46.4 46.4 0 0 1-5.3-.1h-7.7a4.1 4.1 0 0 0-2.4.8v5.3c0 1.7-.1 3.4-.2 5.1s-.2 3.4-.2 5.1-.2 3.5-.2 5.2v5.1c0 .6.7 1.2 1.2 1.7a11.5 11.5 0 0 0 1.4 1.7l1.2 1.8a4.1 4.1 0 0 1 .5 1.8v.4a9.4 9.4 0 0 1-4.1.4c.1.5 0 .7-.2.8H115l-2.2-.2a5.6 5.6 0 0 1-1.9-.9 2.2 2.2 0 0 1-.7-1.9 6.2 6.2 0 0 1 .1-1.3l.3-1.3.3-1.3a5.9 5.9 0 0 0 .2-1.4 23.4 23.4 0 0 0-.3-3.8c-.2-1.2-.4-2.4-.7-3.6s-.5-2.7-.8-3.9a27 27 0 0 1-.7-4h-.5c-.2 0-.3.8-.5 1s-.2.5-.4.7l-.3.5-1.6 2.3a17.6 17.6 0 0 0-1.4 2.3 10.4 10.4 0 0 0-1.1 2.4 7.7 7.7 0 0 0-.4 2.7 4.5 4.5 0 0 0 .3 1.6 10.7 10.7 0 0 0 .7 1.5 6.2 6.2 0 0 0 .8 1.2l.3.6a.8.8 0 0 1-.4.7l-1 .5-1.4.3h-2.6l-1.7-.2a1.8 1.8 0 0 1-1.1-.4 2.7 2.7 0 0 1-.7-.8 10.7 10.7 0 0 1-.6-1.7 14.2 14.2 0 0 0-.5-1.6 4.5 4.5 0 0 1-.3-1.6 3 3 0 0 1 .5-1.5 8.3 8.3 0 0 1 .9-1.6l1.1-1.6a10.9 10.9 0 0 0 .8-1.5c.8-1.9 1.7-3.9 2.5-5.9l2.4-5.9.5-.8.5-.7.5-.7a2.9 2.9 0 0 0 .2-.9c0-.3-.2-.6-.4-.6h-1.3l-9 2.4a2.3 2.3 0 0 1-1.3.6l-1.8.4a4.4 4.4 0 0 0-1.6.6 1.1 1.1 0 0 0-.7 1 1.2 1.2 0 0 0 .3.9l.6.7.9.5.7.6-.4.5-1.3-.9-1.4-.8-1.5-.6-1.5-.3a13.1 13.1 0 0 0-3.8.6l-4 1.1-4.1 1.1a15.4 15.4 0 0 1-4.3.6l-3.5-.4-4.9-1.2a56 56 0 0 1-5.4-1.7 39.1 39.1 0 0 1-5-2.3 12.2 12.2 0 0 1-3.7-2.7 4 4 0 0 1-1.5-3 4.4 4.4 0 0 1 1.1-3.2 6.2 6.2 0 0 1 2.8-1.7 13.6 13.6 0 0 1 3.5-.1 33.1 33.1 0 0 1 3.4.3h4a2.4 2.4 0 0 1 1.3-.3 21.5 21.5 0 0 1 2.3.2l2.6.3 2 .3 1.9.5 1.8.9 1.8.7a7.1 7.1 0 0 0 2.1.4 9.3 9.3 0 0 0 4-1.1 31 31 0 0 0 4.1-2.6 40.8 40.8 0 0 0 3.9-3.1l3.3-2.7 1.9-1.3 1.9-1.1 1.7-1.2 1.5-1.8a33 33 0 0 0 2.6-4.5 39.9 39.9 0 0 1 2.7-4.4l1.4-1.4 1.5-1 1.6-.8 1.7-1 3.6-2.6 3.5-2.9 3.3-3 3.5-2.9a20.8 20.8 0 0 1 3.8-2.2l4-1.9 2.5-1.3 2.5-1.3 2.5-1.2a13.4 13.4 0 0 1 2.7-.7l22.5-3.3a10 10 0 0 0 3.6-1.1 21.7 21.7 0 0 0 3.4-2.2 42 42 0 0 0 3.2-2.9l2.9-3.3 2.7-3.2 2.3-2.8 7.8-9q0-.2.3-.3l.5-.6a1.2 1.2 0 0 0 .5-.5q.3-.1.3-.3l2.1-3.2.2-.2.4-.2.4-.3c.1-.1.2-.1.2-.2l.4-.4.4-.4a12.5 12.5 0 0 0 1.2-1.7 14.3 14.3 0 0 0 1.4-2 21.4 21.4 0 0 0 1.3-1.9 18 18 0 0 0 1-1.8 12.1 12.1 0 0 0 .9-2 17.2 17.2 0 0 1 .7-2.1c.2-.8.5-1.5.7-2.2s1.1-1.5 1.1-2.2v-6.1a5.3 5.3 0 0 0-1.1-3.1 13.4 13.4 0 0 0-2.7-2.6 11.1 11.1 0 0 0-3.4-1.8 8.1 8.1 0 0 0-3.2-.7 22 22 0 0 0-5.8.7 12.2 12.2 0 0 0-5.2 2.6l-1.4 1.5-1.7 1.8-1.7 2.1a16.2 16.2 0 0 1-1.9 1.8 10.2 10.2 0 0 1-1.8 1.3 3.1 3.1 0 0 1-1.8.5 1.7 1.7 0 0 1-1.2-.4 1.8 1.8 0 0 1-.5-1.2v-.4a4.3 4.3 0 0 0 .1-.5c.1-.2.1-.5.2-.8s.1-.5.1-.7a1.3 1.3 0 0 0 .1-.5 8.8 8.8 0 0 0-.2-1.7l-.6-1.3c-.3-.5-.4-.9-.6-1.2a2.8 2.8 0 0 1-.3-1.3 1.2 1.2 0 0 0 .9-.3 1.5 1.5 0 0 0 .4-.6l.5-.7a1 1 0 0 1 .8-.6c0-.1.2-.1.5-.1h2.3a1.1 1.1 0 0 0 1-.4 2.2 2.2 0 0 1 .7-.6h.4c0 .1.1.2.2.4l.2.4c0-.2.2-.3.4-.4l.6-.3 1.1-.7 1.4-.8 1.4-.8 1.1-.7a1.1 1.1 0 0 0 .5-.4l2.1-1.2 1.8-.7 2-.2h6.4l1.5.5 1.6.3 1.5.3 1.6.5a16.2 16.2 0 0 1 4.6 3.1A16.7 16.7 0 0 1 209 58a20.4 20.4 0 0 1 1.7 5.1 24.7 24.7 0 0 1 .5 5.4v2.4z"/></symbol><symbol id="velociraptor" viewBox="0 0 256 256"><path d="M128.3.3C57.6.3.3 57.5.3 128s57.3 127.7 128 127.7 128-57.2 128-127.7S199 .3 128.3.3zM239 116.8h-7.4c-3.1 0-6.1-.2-9.2-.5l-9.2-.9-9.1-1c-3.1-.3-6.2-.4-9.3-.4a153 153 0 0 0-16.4.9 78.2 78.2 0 0 0-15.9 3.7l-30.7 11.1a2.4 2.4 0 0 0-1.2 1.6 21.4 21.4 0 0 0-.9 2.7l-.6 2.9a9.8 9.8 0 0 1-.6 2 3.6 3.6 0 0 0 1.4 1.3l2.4 1.2 2.9 1.1a18.4 18.4 0 0 1 2.8 1.5 6.5 6.5 0 0 1 2.1 1.9 3.5 3.5 0 0 1 .8 2.4 2 2 0 0 1-.4 1.3 5.7 5.7 0 0 1-1.3.8l-1.6.8-1.6.8a4 4 0 0 0-1.2 1 2.5 2.5 0 0 0-.5 1.5 4 4 0 0 0 .8 2.6 10 10 0 0 0 1.9 1.6l2.4 1.3a7.2 7.2 0 0 1 2.2 1.7 17.5 17.5 0 0 1 2 3.5 16.3 16.3 0 0 1 1.3 3.7 38.2 38.2 0 0 1 .8 3.9c.2 1.3.1 2.6.2 3.9l1.4 1.3v7.2h.8l1.1.2.9.2.6.3a3.2 3.2 0 0 1 .1.8c0 .2-.1.6-.1 1a5.6 5.6 0 0 1-.4 1.2l-.6 1a1.1 1.1 0 0 1-.9.3h-5.2c-.2 0-.5-.6-1-.9l-1.5-.8-1.6-.8c-.5-.3-.9-.9-1.2-.9h-6.2a4.7 4.7 0 0 1 .7-2.9 4.9 4.9 0 0 1 1.6-1.6 7.9 7.9 0 0 1 2.2-.6l2.1-.4a3.4 3.4 0 0 0 1.6-.6 1.4 1.4 0 0 0 .7-1.4v-.3a.4.4 0 0 0-.1-.3 11.2 11.2 0 0 0-.8-1.8c-.4-.7-.8-1.6-1.3-2.4l-1.5-2.5a10 10 0 0 0-1.6-1.8l-1.3-.8-1.9-1-1.7-1c-.6-.4-.9-.7-1-1.1a17.9 17.9 0 0 1-.9-3 30.1 30.1 0 0 0-1.1-3.2 8.1 8.1 0 0 0-1.8-2.6 3.8 3.8 0 0 0-2.9-1 24.6 24.6 0 0 0-6 .7 27 27 0 0 0-5.8 2.3 24.9 24.9 0 0 0-5 3.5 19.5 19.5 0 0 0-4 4.6l-.3.2h-.3a.5.5 0 0 1-.2-.4c-.1-.1-.1-.4-.2-.6a1.4 1.4 0 0 0-.2-.6.4.4 0 0 0-.1-.3h-.3a1.6 1.6 0 0 0-1.1.5 4.4 4.4 0 0 0-.8 1.1l-.9 1.4a3.9 3.9 0 0 1-.8 1 5.6 5.6 0 0 1-.7-1.7c0-.4-.1-1-.1-1.6a13.5 13.5 0 0 1 .4-2.9l.9-2.9a18.6 18.6 0 0 0 1-2.5c.2-1 .4-2.8.4-2.8h-4.9c0-1.7.2-1.8.6-2.4a12.1 12.1 0 0 1 1.6-1.6 14.5 14.5 0 0 1 2.2-.9l2.1-.3 3 .2 3 .5 2.9.5 2.9.2h2.4a3 3 0 0 0-1.7-1.4l-2.6-.4-2.7-.2c-.9-.1-1.6.1-2.2-.2l-3.9-2.2h-.3a17.4 17.4 0 0 0-3.2-.1 11.3 11.3 0 0 1-3.2.2 7.3 7.3 0 0 1-3-.7l-2.6-1.4-2.7-1.3a4.9 4.9 0 0 0-2.9-.7v5.7h1.6l1-.4.9-.5a3.5 3.5 0 0 1 .9-.6l.6-.2v2.7l2-.7.3.5a4.3 4.3 0 0 0 .1.5 5.6 5.6 0 0 1-1.3 3.9 23.6 23.6 0 0 1-3.3 2.9 20.9 20.9 0 0 0-4.6-1.2l-4.9-.7v-7.8l-1.7.5-2.1 1-1.9 1.2c-.5.4-.9.8-.9 1.2v6.9a9.3 9.3 0 0 0 2.9-.3l1.9-.6 1.2-.6 1.3-.2h.3a2.4 2.4 0 0 1 .3.7c.2.4.3.8.5 1.3l.4 1.3a3.8 3.8 0 0 1 .1 1 4.6 4.6 0 0 1-.4 1.9 8.1 8.1 0 0 1-1 1.8 6.5 6.5 0 0 1-1.6 1.3 3.3 3.3 0 0 1-1.9.6h-1l-3-.5-3.7-.7a9.3 9.3 0 0 1-3.2-1.3 2.5 2.5 0 0 1-1.5-2.1V150l.9-.8 1.9-1.7 2.4-2.1a28.4 28.4 0 0 0 2.4-2.6 21.1 21.1 0 0 0 1.8-2.7 5.2 5.2 0 0 0 .8-2.5 3.8 3.8 0 0 0-1.2-2.8 14.6 14.6 0 0 0-2.8-2.1l-3.3-1.4-2.6-.9-1.3-9.1a15.7 15.7 0 0 0-.6-2.8 12.8 12.8 0 0 0-1.1-2.7 7.9 7.9 0 0 0-1.8-2.2 4.6 4.6 0 0 0-2.7-.8 12.8 12.8 0 0 0-3.6.4 31.1 31.1 0 0 0-3.3 1.5l-1.6 1.1-2.6 1.5-3 1.7-3 1.8-2.5 1.6c-.8.5-1.3 1.2-1.7 1.2h-1l-1.7-.3-2.1-.3a4.7 4.7 0 0 1-1.4-.8c-.5-.3-.4-.8-.4-1.4v-1.9c0-.6-.2-.9.1-.9h1.6c0-.1-.1-.2 0-.4s.1-.6.1-.9a3.1 3.1 0 0 0 .2-.8c.1-.3.1-.5 0-.5a2.4 2.4 0 0 0-.8-.9l-.9-.5-.7-.6a2.3 2.3 0 0 1-.3-1.3 3.5 3.5 0 0 1 .3-1.2 4.1 4.1 0 0 1 .7-1.1c.3-.4.2-.7.6-.9l.8-.3v.7a4.7 4.7 0 0 0 .6 1.5 1.2 1.2 0 0 0 1.2.8 1.8 1.8 0 0 0 1.1-.5 4 4 0 0 0 1-1.2 10.4 10.4 0 0 0 .6-1.6c.2-.4.3.3.3-1.4H21.2a1.4 1.4 0 0 1-.9-.5l-1.1-.6-.9-.8a1.5 1.5 0 0 1-.4-1.1 4.8 4.8 0 0 1 1.1-3.2 10 10 0 0 1 2.6-1.8 17 17 0 0 1 3.2-1 17.1 17.1 0 0 0 2.9-.8l2.2-.9 3.4-1.6 3.4-1.6a10.7 10.7 0 0 1 2.2-1.1h13.7a7.6 7.6 0 0 1 3.9 1 14.8 14.8 0 0 1 3.1 2.5c.9 1.1 1.8 2.2 2.6 3.4a27.5 27.5 0 0 0 2.3 3.3 11.2 11.2 0 0 0 2.3 2.5 3.4 3.4 0 0 0 2.5 1.1.8.8 0 0 0 .7-.4 1 1 0 0 1 .9-.4 4 4 0 0 1 1.5.3l1.5.7 1.6.7a4.1 4.1 0 0 0 1.6.3l4.1-.2 4.1-.4 4.2-.5a27.3 27.3 0 0 1 4.1-.3c2.6 0 5 .2 7.3.4a39.9 39.9 0 0 1 7.3 1.6l5.1 2 5.1 2.2a55.2 55.2 0 0 0 5.3 1.8 25.1 25.1 0 0 0 5.5.7h2.6l12.9-2.8 12.9-2.3c4.4-.6 8.7-1.1 13.1-1.5s8.7-.6 13.2-.6h8.9a34 34 0 0 1 5 1l36.7 7.2h11.8c-.8 0-1.9 1.1-3.2 1.4a13.8 13.8 0 0 1-4.1.2z"/></symbol></svg>